<svg width="468" height="184" viewBox="0 0 468 184" fill="none" xmlns="http://www.w3.org/2000/svg">
<path d="M23.7821 80.743C23.0168 37.8685 56.378 1.97986 99.2328 0.133048C109.633 -0.324396 120.02 1.29327 129.789 4.89174C139.557 8.4902 148.512 13.9975 156.13 21.0925C172.331 12.515 190.263 7.71815 208.582 7.06172C226.901 6.4053 245.13 9.90638 261.903 17.3023C271.233 11.9383 281.718 8.90002 292.471 8.44432C323.207 7.11886 350.124 26.7444 360.224 55.004C370.623 57.9545 380.066 63.5817 387.611 71.3237C393.789 69.0902 400.271 67.8125 406.835 67.5346C439.142 66.1287 466.353 88.501 467.601 117.491C468.344 134.252 460.197 149.549 446.97 159.749C448.223 163.334 448.945 167.082 449.114 170.876C450.352 199.518 419.956 224.096 381.23 225.765C357.131 226.807 335.489 218.726 322.276 205.572C313.12 211.873 301.601 215.899 288.958 216.444C275.679 217.033 263.307 213.669 253.389 207.62C243.031 218.614 228.829 225.685 212.902 226.37C200.005 226.914 187.291 223.179 176.738 215.745C166.486 233.595 148.599 245.775 127.741 246.674C100.129 247.866 75.9515 228.89 67.2597 201.812C66.3471 201.895 65.4287 201.968 64.5035 202.009C30.7031 203.465 1.99895 174.358 0.390433 136.998C-0.597573 114.235 8.71437 93.6723 23.7821 80.743Z" fill="#DDF0FD"/>
</svg>
