<svg width="343" height="234" viewBox="0 0 343 234" fill="none" xmlns="http://www.w3.org/2000/svg">
<path d="M257.457 112.557C245.782 110.154 233.785 109.743 221.974 111.342C219.558 67.2447 193.337 30.2668 155.001 22.3942C138.935 19.0749 122.805 21.3535 108.044 27.9782C93.8536 15.1023 76.4656 6.27343 57.6968 2.41408C28.5288 -3.57796 -0.41507 2.99118 -24.0603 18.4985C-35.6985 11.2321 -48.5462 6.11288 -61.9926 3.38433C-92.5538 -2.88864 -122.19 3.41994 -143.554 18.3206C-152.269 14.4506 -161.377 11.5353 -170.719 9.62573C-213.909 0.757384 -255.461 14.0366 -279.007 40.7319C-290.992 28.9297 -306.146 20.8605 -322.629 17.504C-369.6 7.84047 -415.44 37.7866 -425.004 84.3773C-434.568 130.968 -404.243 176.547 -357.268 186.191C-356.155 186.421 -355.04 186.61 -353.937 186.789C-350.042 221.455 -320.426 252.369 -279.391 260.793C-256.314 265.561 -233.721 262.302 -215.319 253.175C-202.631 268.692 -184.009 280.376 -161.867 284.951C-138.723 289.732 -116.022 285.75 -97.8412 275.52C-85.3461 287.34 -69.6756 295.26 -52.7482 298.311C-35.8209 301.361 -18.3713 299.41 -2.53584 292.696C8.6029 300.562 21.2522 306.032 34.6126 308.761C68.123 315.643 101.023 304.743 123.026 282.67C135.067 287.788 147.943 290.659 161.017 291.142C172.68 302.86 186.923 311.688 202.606 316.919C218.29 322.15 234.98 323.64 251.342 321.268C267.704 318.897 283.285 312.731 296.838 303.262C310.391 293.794 321.542 281.286 329.398 266.739C337.253 252.191 341.597 236.008 342.081 219.482C342.565 202.956 339.177 186.546 332.186 171.563C325.195 156.581 314.796 143.442 301.82 133.196C288.845 122.95 273.652 115.883 257.457 112.557Z" fill="#BCE1FB"/>
</svg>
