<svg width="432" height="149" viewBox="0 0 432 149" fill="none" xmlns="http://www.w3.org/2000/svg">
<path d="M431.427 160.216C435.104 125.709 410.963 94.8436 377.503 91.2595C371.076 90.5775 364.581 90.9502 358.274 92.3632C350.14 69.5506 330.491 52.4211 305.97 49.8216C293.96 48.5456 281.844 50.8992 271.186 56.5786C258.741 27.5816 227.507 5.07796 188.955 0.969214C135.802 -4.69779 88.857 26.7337 84.1338 71.1731C84.0403 72.0405 83.9711 72.9104 83.9149 73.7736C83.215 75.0552 82.5619 76.3583 81.9743 77.7012C81.1996 77.5849 80.4241 77.4766 79.6414 77.3963C51.758 74.4218 26.7771 94.3353 23.8407 121.866C23.2241 127.612 23.6188 133.422 25.007 139.032C11.7071 144.842 2.42485 155.256 1.05625 167.945C-1.24606 189.558 20.3467 209.575 49.2641 212.657C55.4473 213.329 61.6931 213.158 67.8305 212.15C75.0927 221.568 85.6523 228.012 97.9083 229.334C112.065 230.861 125.454 225.179 134.961 215.073C142.469 227.006 154.705 235.39 169.22 236.939C180.974 238.207 192.234 234.735 201.343 228.017C209.69 241.861 223.881 251.699 240.824 253.505C257.587 255.313 273.384 248.817 284.455 237.256C293.26 248.833 305.455 256.569 319.521 258.069C344.506 260.731 367.838 242.993 378.4 216.039C405.781 212.342 428.28 189.737 431.427 160.216Z" fill="#23A1EB"/>
</svg>
